<?xml version="1.0" encoding="utf-8"?>
<!-- Generator: Adobe Illustrator 13.0.0, SVG Export Plug-In . SVG Version: 6.00 Build 14948)  -->
<!DOCTYPE svg PUBLIC "-//W3C//DTD SVG 1.1//EN" "http://www.w3.org/Graphics/SVG/1.1/DTD/svg11.dtd">
<svg version="1.1" id="레이어_1" xmlns="http://www.w3.org/2000/svg" xmlns:xlink="http://www.w3.org/1999/xlink" x="0px"
	 y="0px" width="588px" height="85.136px" viewBox="0 0 588 85.136" enable-background="new 0 0 588 85.136" xml:space="preserve">
<polygon fill="#221E1F" points="125.475,31.775 100.18,31.775 100.18,3.206 80.233,3.206 80.233,83.495 100.291,83.495 
	100.291,51.604 125.589,51.604 125.589,83.495 145.645,83.495 145.645,3.206 125.475,3.206 "/>
<g>
	<defs>
		<rect id="SVGID_1_" y="0.136" width="588" height="85"/>
	</defs>
	<clipPath id="SVGID_2_">
		<use xlink:href="#SVGID_1_"  overflow="visible"/>
	</clipPath>
	<path clip-path="url(#SVGID_2_)" fill="#221E1F" d="M57.663,56.554c-0.049,0.063-0.097,0.128-0.148,0.189l-0.044,0.049
		c-1.48,1.658-3.128,3.037-4.902,4.103c-1.779,1.071-3.624,1.868-5.485,2.37c-1.873,0.504-3.61,0.76-5.16,0.76
		c-2.697,0-5.305-0.532-7.751-1.582c-2.509-1.078-4.756-2.569-6.679-4.437c-1.92-1.86-3.462-4.078-4.586-6.598
		c-1.106-2.47-1.667-5.182-1.667-8.063c0-2.699,0.536-5.329,1.594-7.822c1.066-2.519,2.547-4.752,4.407-6.638
		c1.863-1.894,4.088-3.426,6.618-4.553c2.474-1.108,5.187-1.669,8.064-1.669c3.625,0,7.09,0.969,10.298,2.88
		c1.682,1.003,3.299,2.321,4.801,3.916l2.068,2.2L75.2,20.612l-2.434-2.965c-1.069-1.309-2.072-2.404-3.072-3.355
		c-2.785-2.632-5.799-4.797-8.956-6.436c-3.115-1.615-6.325-2.817-9.542-3.575c-3.205-0.753-6.324-1.134-9.272-1.134
		c-5.649,0-10.997,1.077-15.898,3.202C21.16,8.462,16.875,11.374,13.29,15c-3.592,3.628-6.446,7.936-8.483,12.802
		c-2.046,4.879-3.083,10.109-3.083,15.544c0,5.438,1.038,10.653,3.084,15.496c2.033,4.821,4.882,9.122,8.469,12.783
		c3.588,3.668,7.877,6.601,12.75,8.718c4.894,2.124,10.242,3.201,15.897,3.201c3.272,0,6.698-0.459,10.175-1.362
		c3.529-0.91,6.987-2.368,10.279-4.332c3.265-1.95,6.37-4.48,9.229-7.523c1.206-1.284,2.363-2.735,3.537-4.437l2.367-3.434
		l-17.892-8.329L57.663,56.554z"/>
	<rect x="153.539" y="3.2" clip-path="url(#SVGID_2_)" fill="#221E1F" width="19.987" height="80.292"/>
	<polygon clip-path="url(#SVGID_2_)" fill="#221E1F" points="253.918,8.757 257.81,3.206 234.363,3.206 217.823,26.382 
		202.711,4.719 201.661,3.206 178.073,3.206 206.315,43.407 182.08,77.938 178.2,83.484 201.646,83.484 218.079,60.418 
		234.246,83.484 257.831,83.484 229.579,43.403 	"/>
	<polygon clip-path="url(#SVGID_2_)" fill="#221E1F" points="281.624,3.206 262.52,3.206 262.52,83.496 320.025,83.496 
		320.025,64.188 281.624,64.188 	"/>
	<path clip-path="url(#SVGID_2_)" fill="#221E1F" d="M463.503,45.903c-1.071-2.015-2.522-3.975-4.315-5.829
		c-1.117-1.157-2.44-2.311-3.947-3.446c0.058-0.144,0.113-0.29,0.166-0.438c0.408-1.127,0.756-2.285,1.04-3.459
		c0.265-1.131,0.461-2.202,0.585-3.201c0.116-0.99,0.173-1.753,0.173-2.332c0-2.278-0.36-4.63-1.07-6.991
		c-0.715-2.37-1.799-4.634-3.228-6.734c-1.438-2.105-3.271-4.007-5.448-5.654c-2.207-1.67-4.798-2.925-7.704-3.733
		c-0.545-0.176-1.257-0.351-2.234-0.55c-1.152-0.232-1.896-0.33-2.487-0.33h-30.674v80.289h38.256c2.981,0,5.941-0.692,8.801-2.058
		c2.772-1.329,5.306-3.19,7.527-5.525c2.213-2.316,4.022-5.027,5.383-8.055c1.396-3.112,2.104-6.481,2.104-10.015
		c0-1.891-0.219-3.854-0.647-5.838C465.336,49.955,464.57,47.902,463.503,45.903 M434.782,22.724
		c0.178,0.082,0.357,0.169,0.557,0.27c0.823,0.399,1.401,0.981,1.769,1.779c0.734,1.599,0.756,2.253,0.756,2.322
		c0,0.452-0.109,0.964-0.324,1.522c-0.239,0.607-0.568,1.155-0.996,1.65c-0.411,0.485-0.897,0.893-1.432,1.207
		c-0.35,0.202-0.743,0.301-1.205,0.301h-10.411v-9.051H434.782z M447.085,57.635c0,0.626-0.137,1.328-0.402,2.072
		c-0.308,0.848-0.726,1.642-1.252,2.375c-0.429,0.601-0.989,1.115-1.659,1.52c-0.539,0.325-1.119,0.482-1.771,0.482h-18.505V51.604
		h18.812c0.55,0,1.034,0.14,1.479,0.425c0.657,0.422,1.224,0.952,1.688,1.579c0.504,0.677,0.913,1.434,1.215,2.233
		C447.017,56.733,447.085,57.309,447.085,57.635"/>
	<polygon clip-path="url(#SVGID_2_)" fill="#221E1F" points="469.838,83.499 525.131,83.499 525.131,64.36 488.974,64.36 
		488.974,52.923 520.064,52.923 520.064,33.781 488.974,33.781 488.974,22.346 525.131,22.346 525.131,3.206 469.838,3.206 	"/>
	<path clip-path="url(#SVGID_2_)" fill="#221E1F" d="M362.586,0l-36.453,78.5l-2.27,4.984h20.568l5.771-12.187l0.11-0.242h24.563
		l5.847,12.429h20.609L362.586,0z M356.37,54.438l6.227-15.568l6.832,15.568H356.37z"/>
	<polygon clip-path="url(#SVGID_2_)" fill="#221E1F" points="550.992,64.188 550.992,3.206 531.895,3.206 531.895,83.496 
		586.725,83.496 586.725,64.188 	"/>
</g>
</svg>
